<?xml version="1.0" encoding="UTF-8"?>
<svg version="1.1" xmlns="http://www.w3.org/2000/svg" width="512" height="512">
<path d="M0 0 C0.63099609 0.30663574 1.26199219 0.61327148 1.91210938 0.92919922 C11.64407621 5.71333888 20.35424954 11.47570989 29 18 C29.89074219 18.66515625 30.78148437 19.3303125 31.69921875 20.015625 C35.76548558 23.10733201 39.51286606 26.25133101 43 30 C43.94746094 31.00933594 43.94746094 31.00933594 44.9140625 32.0390625 C79.05691274 69.07741947 92.82736101 112.0047563 91 162 C89.6522022 181.38680169 83.50671078 200.62401218 75 218 C74.70399902 218.62036133 74.40799805 219.24072266 74.10302734 219.87988281 C67.05965883 234.51456422 57.2225436 247.30512713 46 259 C45.11054688 259.95261719 44.22109375 260.90523438 43.3046875 261.88671875 C15.49970572 291.13874738 -25.34242781 307.84426311 -65.3984375 309.28125 C-78.83829289 309.56512095 -91.83715953 308.75227997 -105 306 C-105.77859375 305.83902832 -106.5571875 305.67805664 -107.359375 305.51220703 C-148.83633867 296.57646217 -184.67981357 270.06518323 -208 235 C-208.38542969 234.4229834 -208.77085937 233.8459668 -209.16796875 233.25146484 C-219.65411158 217.31199092 -226.76065119 199.56147317 -231 181 C-231.24339111 180.01241699 -231.24339111 180.01241699 -231.49169922 179.00488281 C-240.96438429 139.64778262 -231.43696397 96.63807931 -211.1171875 62.36328125 C-204.48314958 51.8247081 -197.1027393 42.42045219 -188.43310547 33.47998047 C-187.10064523 32.1039372 -185.78588058 30.71081911 -184.47265625 29.31640625 C-137.80486689 -19.16666179 -59.4125899 -29.22815625 0 0 Z " fill="#FC832F" transform="translate(329,108)"/>
<path d="M0 0 C0.63099609 0.30663574 1.26199219 0.61327148 1.91210938 0.92919922 C11.64407621 5.71333888 20.35424954 11.47570989 29 18 C29.89074219 18.66515625 30.78148437 19.3303125 31.69921875 20.015625 C35.76548558 23.10733201 39.51286606 26.25133101 43 30 C43.94746094 31.00933594 43.94746094 31.00933594 44.9140625 32.0390625 C79.05691274 69.07741947 92.82736101 112.0047563 91 162 C89.6522022 181.38680169 83.50671078 200.62401218 75 218 C74.70399902 218.62036133 74.40799805 219.24072266 74.10302734 219.87988281 C67.05965883 234.51456422 57.2225436 247.30512713 46 259 C45.11054688 259.95261719 44.22109375 260.90523438 43.3046875 261.88671875 C15.49970572 291.13874738 -25.34242781 307.84426311 -65.3984375 309.28125 C-78.83829289 309.56512095 -91.83715953 308.75227997 -105 306 C-105.77859375 305.83902832 -106.5571875 305.67805664 -107.359375 305.51220703 C-148.83633867 296.57646217 -184.67981357 270.06518323 -208 235 C-208.38542969 234.4229834 -208.77085937 233.8459668 -209.16796875 233.25146484 C-219.65411158 217.31199092 -226.76065119 199.56147317 -231 181 C-231.24339111 180.01241699 -231.24339111 180.01241699 -231.49169922 179.00488281 C-240.96438429 139.64778262 -231.43696397 96.63807931 -211.1171875 62.36328125 C-204.48314958 51.8247081 -197.1027393 42.42045219 -188.43310547 33.47998047 C-187.10064523 32.1039372 -185.78588058 30.71081911 -184.47265625 29.31640625 C-137.80486689 -19.16666179 -59.4125899 -29.22815625 0 0 Z M-127 21 C-127.65758301 21.29245605 -128.31516602 21.58491211 -128.99267578 21.88623047 C-136.72014513 25.37587656 -143.93614375 29.36877387 -150.875 34.25 C-151.4642627 34.66217773 -152.05352539 35.07435547 -152.66064453 35.49902344 C-155.64446209 37.68437957 -157.72321295 39.47671422 -159 43 C-155.6559203 46.34744397 -152.30360822 49.68635439 -148.9453125 53.01953125 C-147.49911726 54.45834458 -146.05340855 55.89764481 -144.60791016 57.3371582 C-143.623788 58.31625767 -142.63876938 59.29445695 -141.65283203 60.27172852 C-125.60607793 76.1817662 -125.60607793 76.1817662 -124 81 C-124.49628906 81.4125 -124.99257812 81.825 -125.50390625 82.25 C-130.4811566 86.48113502 -134.82619038 90.9783853 -139 96 C-143.46495161 95.12911221 -146.07354515 92.59286796 -149.375 89.625 C-154.24331684 85.34247587 -159.18145044 81.21419943 -164.3125 77.25 C-169.74201389 73.04424056 -174.95113819 68.66151527 -180 64 C-183.83843658 67.57580671 -186.70826201 71.28077668 -189.375 75.8125 C-189.76002686 76.463396 -190.14505371 77.11429199 -190.54174805 77.78491211 C-197.17864119 89.26809563 -201.73735132 101.14668173 -205 114 C-205.28746094 115.04027344 -205.57492188 116.08054687 -205.87109375 117.15234375 C-207.65779552 123.79477092 -208.73176694 130.12850008 -209 137 C-209.03254883 137.75007324 -209.06509766 138.50014648 -209.09863281 139.27294922 C-210.34603443 171.98889154 -200.93867916 204.38750852 -180 230 C-179.55398437 230.54994629 -179.10796875 231.09989258 -178.6484375 231.66650391 C-168.77659595 243.76544874 -158.06392949 253.43188664 -145 262 C-144.21367187 262.53367187 -143.42734375 263.06734375 -142.6171875 263.6171875 C-125.72014887 274.50900682 -103.51513554 282.07736828 -83.35546875 282.203125 C-82.62741531 282.20882507 -81.89936188 282.21452515 -81.14924622 282.22039795 C-79.608708 282.2298092 -78.06815 282.23636645 -76.52758789 282.24023438 C-74.23219756 282.24981347 -71.93775399 282.2808185 -69.64257812 282.3125 C-33.15925807 282.57388403 -0.42621728 267.73926572 26 243 C33.36460699 235.72822419 39.46019718 227.71304075 45 219 C45.37511719 218.42217773 45.75023437 217.84435547 46.13671875 217.24902344 C58.98961914 197.16910824 65.65285901 172.79180829 65.4375 149.0625 C65.43445862 148.34788605 65.43141724 147.63327209 65.42828369 146.89700317 C65.31074217 128.10472628 62.80358473 110.22493146 55 93 C54.5671167 92.02522705 54.5671167 92.02522705 54.12548828 91.03076172 C39.45458528 58.47548048 13.3673936 33.5086404 -19.5 19.625 C-54.26332039 6.62163907 -92.79025816 5.52181709 -127 21 Z " fill="#19353F" transform="translate(329,108)"/>
<path d="M0 0 C1.14041748 -0.01023193 2.28083496 -0.02046387 3.45581055 -0.03100586 C20.59847655 0.14667054 36.08575409 6.67154402 49.3125 17.4375 C50.48232422 18.34435547 50.48232422 18.34435547 51.67578125 19.26953125 C65.79251071 30.85061327 75.02342983 49.47045863 77.3125 67.4375 C78.95740991 91.0522379 73.90720102 112.15280393 58.3125 130.4375 C57.67441406 131.26507813 57.03632813 132.09265625 56.37890625 132.9453125 C47.39398494 143.7815692 32.6497829 151.55682044 19.3125 155.4375 C18.18908203 155.77394531 18.18908203 155.77394531 17.04296875 156.1171875 C-2.86304603 161.06825762 -23.17958648 155.86058655 -40.75 146.25 C-58.86769941 135.27531002 -70.42413433 117.88925855 -76.1796875 97.78125 C-81.27657881 74.25713624 -76.38649881 52.43737582 -63.625 32.4375 C-62.66711427 31.08879689 -61.6885267 29.75450064 -60.6875 28.4375 C-60.19121094 27.7775 -59.69492188 27.1175 -59.18359375 26.4375 C-50.91897498 16.24115106 -39.6140897 9.54700458 -27.6875 4.4375 C-26.68074219 4.00179687 -25.67398438 3.56609375 -24.63671875 3.1171875 C-16.5013164 0.21964694 -8.57171411 0.05964241 0 0 Z " fill="#1A3842" transform="translate(256.6875,176.5625)"/>
<path d="M0 0 C14.70844316 13.80051457 24.34310785 33.66849826 25.32861328 53.87792969 C25.79613588 73.34101318 25.79613588 73.34101318 23.21875 82.625 C22.90035156 83.78 22.58195313 84.935 22.25390625 86.125 C17.68310129 101.14555772 10.35277447 112.62254451 -0.78125 123.625 C-1.76544922 124.62466797 -1.76544922 124.62466797 -2.76953125 125.64453125 C-19.64007694 141.64806817 -41.9831386 146.24450512 -64.44140625 145.89453125 C-70.8109016 145.67466019 -76.69325303 144.55478017 -82.78125 142.625 C-82.86632812 143.62789062 -82.95140625 144.63078125 -83.0390625 145.6640625 C-83.8175626 151.87294225 -85.51990542 157.8839882 -87.10986328 163.92382812 C-87.65280958 165.98692703 -88.18837628 168.05182923 -88.72265625 170.1171875 C-90.59781771 177.33099802 -92.56039953 184.50852116 -94.78125 191.625 C-101.04312599 190.44946215 -106.66929342 188.69021838 -112.46875 186.0625 C-113.63277344 185.53849609 -113.63277344 185.53849609 -114.8203125 185.00390625 C-126.18071346 179.74342502 -136.28716236 172.77587267 -145.78125 164.625 C-146.68617188 163.85414063 -147.59109375 163.08328125 -148.5234375 162.2890625 C-173.45660985 140.39483637 -190.9833634 106.84907653 -193.78125 73.625 C-195.62497887 40.0910402 -187.43153136 5.03178257 -165.78125 -21.375 C-160.68679279 -17.70699081 -155.89360406 -13.79784167 -151.15625 -9.6875 C-145.67156633 -4.9288292 -140.06549831 -0.37049585 -134.31201172 4.05932617 C-129.95957059 7.42211268 -129.95957059 7.42211268 -128.13671875 9.49609375 C-126.82005838 10.85056004 -126.82005838 10.85056004 -124.79296875 10.53515625 C-122.32832261 9.42008334 -121.27082951 8.17851883 -119.59375 6.0625 C-106.64168559 -9.29925081 -88.16517827 -19.75387055 -68.109375 -22.125 C-42.22346023 -24.06948186 -19.75567949 -16.87001844 0 0 Z M-107.78125 1.625 C-108.38582031 2.08390625 -108.99039063 2.5428125 -109.61328125 3.015625 C-123.15165188 13.65073331 -131.50532661 32.22772045 -134.33203125 48.8671875 C-137.0977686 72.00318172 -131.87965105 94.21117174 -117.34375 112.73046875 C-104.33393396 128.02110132 -85.77367648 138.27417358 -65.78125 140.625 C-55.43498237 141.26087974 -45.67366295 140.97675034 -35.78125 137.625 C-34.23244141 137.13193359 -34.23244141 137.13193359 -32.65234375 136.62890625 C-12.89856115 129.75905887 2.13403233 116.41076214 11.96875 98 C21.58810053 77.50562615 23.35382879 56.228433 16.21875 34.625 C15.785625 33.24828125 15.785625 33.24828125 15.34375 31.84375 C8.27690484 11.90515116 -7.96160715 -2.00163121 -26.47265625 -10.90234375 C-54.01252662 -23.16034981 -85.04491216 -17.25698723 -107.78125 1.625 Z " fill="#FAA745" transform="translate(313.78125,193.375)"/>
<path d="M0 0 C2.06201188 1.66257813 4.10414473 3.35013234 6.125 5.0625 C6.63756348 5.49675293 7.15012695 5.93100586 7.67822266 6.37841797 C20.70625502 17.53889515 30.10335915 30.58671127 39.125 45.0625 C35.44605875 49.46754807 30.73117065 51.54809895 25.6875 54.046875 C24.7704126 54.50733215 23.8533252 54.96778931 22.90844727 55.44219971 C20.97380802 56.41087735 19.03715181 57.37553584 17.09863281 58.33642578 C14.12995262 59.81004158 11.17020545 61.30055813 8.2109375 62.79296875 C6.3286373 63.73279757 4.44584116 64.67163391 2.5625 65.609375 C1.67699463 66.05617615 0.79148926 66.50297729 -0.12084961 66.96331787 C-1.36233765 67.57460541 -1.36233765 67.57460541 -2.62890625 68.19824219 C-3.35408447 68.55924011 -4.0792627 68.92023804 -4.82641602 69.29217529 C-6.875 70.0625 -6.875 70.0625 -10.875 70.0625 C-12.48046875 68.0078125 -12.48046875 68.0078125 -14.0625 65.1875 C-25.80320037 45.65318697 -43.45601454 35.12276587 -64.875 29.0625 C-65.80183594 28.794375 -66.72867188 28.52625 -67.68359375 28.25 C-86.76379468 23.61669657 -108.51683266 28.38078252 -125.2578125 38.0078125 C-127.84019441 39.63913816 -130.37616029 41.30655859 -132.875 43.0625 C-136.26820723 40.41414314 -139.21250672 37.77282556 -141.98828125 34.48046875 C-146.2593737 29.54129453 -150.86131532 24.96657304 -155.5 20.375 C-156.74910156 19.13266602 -156.74910156 19.13266602 -158.0234375 17.86523438 C-159.61258585 16.28494274 -161.20269461 14.70561609 -162.79394531 13.12744141 C-165.16081098 10.77890201 -167.51968847 8.42261829 -169.875 6.0625 C-168.34994767 1.85412773 -165.2859897 -0.21414434 -161.75 -2.6875 C-161.13108887 -3.12288086 -160.51217773 -3.55826172 -159.87451172 -4.00683594 C-152.91470668 -8.77201378 -145.57020784 -12.51510298 -137.875 -15.9375 C-137.25995605 -16.21577637 -136.64491211 -16.49405273 -136.01123047 -16.78076172 C-92.19677591 -36.17711523 -37.91359543 -29.01439214 0 0 Z " fill="#F64636" transform="translate(339.875,144.9375)"/>
<path d="M0 0 C14.70844316 13.80051457 24.34310785 33.66849826 25.32861328 53.87792969 C25.79613588 73.34101318 25.79613588 73.34101318 23.21875 82.625 C22.90035156 83.78 22.58195313 84.935 22.25390625 86.125 C17.68310129 101.14555772 10.35277447 112.62254451 -0.78125 123.625 C-1.76544922 124.62466797 -1.76544922 124.62466797 -2.76953125 125.64453125 C-19.53320447 141.54668807 -42.00477137 146.41090865 -64.37109375 145.9296875 C-85.27880484 145.04867303 -105.08708768 133.23255114 -119.36328125 118.45703125 C-132.5205256 103.04668852 -139.78125 84.86922673 -139.78125 64.625 C-157.60125 64.625 -175.42125 64.625 -193.78125 64.625 C-193.78125 33.86985025 -185.62287934 2.82577518 -165.78125 -21.375 C-160.68679279 -17.70699081 -155.89360406 -13.79784167 -151.15625 -9.6875 C-145.67156633 -4.9288292 -140.06549831 -0.37049585 -134.31201172 4.05932617 C-129.95957059 7.42211268 -129.95957059 7.42211268 -128.13671875 9.49609375 C-126.82005838 10.85056004 -126.82005838 10.85056004 -124.79296875 10.53515625 C-122.32832261 9.42008334 -121.27082951 8.17851883 -119.59375 6.0625 C-106.64168559 -9.29925081 -88.16517827 -19.75387055 -68.109375 -22.125 C-42.22346023 -24.06948186 -19.75567949 -16.87001844 0 0 Z M-107.78125 1.625 C-108.38582031 2.08390625 -108.99039063 2.5428125 -109.61328125 3.015625 C-123.15165188 13.65073331 -131.50532661 32.22772045 -134.33203125 48.8671875 C-137.0977686 72.00318172 -131.87965105 94.21117174 -117.34375 112.73046875 C-104.33393396 128.02110132 -85.77367648 138.27417358 -65.78125 140.625 C-55.43498237 141.26087974 -45.67366295 140.97675034 -35.78125 137.625 C-34.23244141 137.13193359 -34.23244141 137.13193359 -32.65234375 136.62890625 C-12.89856115 129.75905887 2.13403233 116.41076214 11.96875 98 C21.58810053 77.50562615 23.35382879 56.228433 16.21875 34.625 C15.785625 33.24828125 15.785625 33.24828125 15.34375 31.84375 C8.27690484 11.90515116 -7.96160715 -2.00163121 -26.47265625 -10.90234375 C-54.01252662 -23.16034981 -85.04491216 -17.25698723 -107.78125 1.625 Z " fill="#F9F9F8" transform="translate(313.78125,193.375)"/>
<path d="M0 0 C-0.79368181 5.20414147 -2.88651301 9.83707661 -4.91601562 14.6484375 C-6.13325306 17.59574364 -7 19.77728379 -7 23 C-6.21496094 23.35191406 -5.42992187 23.70382813 -4.62109375 24.06640625 C3.94909477 28.09386908 10.33566119 31.85359382 14.4375 40.625 C17.44743558 49.1987559 17.23450686 58.46369367 13.375 66.71875 C7.61082907 76.28203358 -0.78185422 79.59395141 -11 83 C-10.72285156 84.22976563 -10.44570313 85.45953125 -10.16015625 86.7265625 C-9.79418533 88.35935584 -9.42830468 89.99216941 -9.0625 91.625 C-8.78889648 92.83736328 -8.78889648 92.83736328 -8.50976562 94.07421875 C-7.54955437 98.36898181 -6.66903081 102.64777849 -6 107 C-23.54030433 107.74816464 -36.49403971 104.37862031 -50.1875 92.8125 C-60.15008703 83.47550713 -64.55627615 71.91396443 -68 59 C-68.33 59 -68.66 59 -69 59 C-69.57004869 43.35533048 -67.34558245 30.0324923 -56.75 17.8125 C-41.7620462 2.03440696 -21.64860844 -7.01214566 0 0 Z " fill="#44727D" transform="translate(270,202)"/>
<path d="M0 0 C3.75530009 3.39284758 5.1026141 7.43641607 6.9375 12.0625 C7.29013916 12.94776367 7.64277832 13.83302734 8.00610352 14.74511719 C14.26672008 31.00217467 16.26858414 47.35896441 16.375 64.6875 C16.38234161 65.78075089 16.38234161 65.78075089 16.38983154 66.89608765 C16.42777477 80.58363878 15.45276265 94.64105763 9 107 C3.91943052 106.33749133 -0.60335391 104.88145082 -5.3984375 103.1640625 C-6.58912338 102.74403458 -6.58912338 102.74403458 -7.80386353 102.31552124 C-10.32924038 101.42330515 -12.85209442 100.52417706 -15.375 99.625 C-17.06234538 99.02820849 -18.74984403 98.43185013 -20.4375 97.8359375 C-27.64896695 95.28434829 -34.84357241 92.70273102 -42 90 C-41 82 -41 82 -40.48046875 78.3125 C-38.183086 59.76086461 -40.57696179 42.13460204 -48 25 C-35.37318699 18.35771557 -22.71637092 11.79280964 -9.92138672 5.47924805 C-9.05529785 5.05039307 -8.18920898 4.62153809 -7.296875 4.1796875 C-6.53729492 3.80569824 -5.77771484 3.43170898 -4.99511719 3.04638672 C-2.78024356 1.92916692 -2.78024356 1.92916692 0 0 Z " fill="#F66A22" transform="translate(378,191)"/>
<path d="M0 0 C0.33 0.66 0.66 1.32 1 2 C2.87630881 2.66465344 2.87630881 2.66465344 5.26953125 3.17578125 C14.60027361 5.57451117 23.61324149 8.97545101 32.6875 12.1875 C34.56432855 12.84866104 36.4412807 13.50947129 38.31835938 14.16992188 C42.88034208 15.77590539 47.44062347 17.38663319 52 19 C50.27837126 25.22759057 48.32045739 31.05798313 45.375 36.8125 C45.02800049 37.49481689 44.68100098 38.17713379 44.32348633 38.88012695 C36.70137207 53.49953619 26.00724345 67.7507394 13 78 C8.65075883 76.34264353 5.90867418 73.08843355 2.75 69.8125 C-2.46349963 64.48564572 -2.46349963 64.48564572 -8 59.5 C-11.81168696 56.23166366 -15.45376172 52.80184566 -19.0625 49.3125 C-19.65998047 48.75304687 -20.25746094 48.19359375 -20.87304688 47.6171875 C-22.53515625 45.98828125 -22.53515625 45.98828125 -25 43 C-24.55816379 39.13381921 -22.85124418 37.66933943 -20 35.125 C-10.38831246 25.80411193 -2.95289232 13.10345967 0 0 Z " fill="#FC9530" transform="translate(335,279)"/>
<path d="M0 0 C0.29132813 1.28648438 0.58265625 2.57296875 0.8828125 3.8984375 C1.1753894 5.18826538 1.1753894 5.18826538 1.47387695 6.50415039 C1.9130972 8.44070492 2.35172313 10.37739433 2.78979492 12.31420898 C4.05797374 17.90687312 5.34798103 23.49354023 6.66796875 29.07421875 C6.9417334 30.23840332 7.21549805 31.40258789 7.49755859 32.60205078 C8.03374436 34.87883241 8.57431565 37.15458646 9.11962891 39.42919922 C9.48773682 40.99758545 9.48773682 40.99758545 9.86328125 42.59765625 C10.08282471 43.52070557 10.30236816 44.44375488 10.52856445 45.39477539 C10.9983154 47.99069063 11.08646299 50.3683756 11 53 C10.01902344 53.14695313 9.03804688 53.29390625 8.02734375 53.4453125 C-6.5090264 55.79146993 -18.83201187 60.44952185 -31 69 C-34.39320723 66.35164314 -37.33750672 63.71032556 -40.11328125 60.41796875 C-44.3843737 55.47879453 -48.98631532 50.90407304 -53.625 46.3125 C-54.87410156 45.07016602 -54.87410156 45.07016602 -56.1484375 43.80273438 C-57.73758585 42.22244274 -59.32769461 40.64311609 -60.91894531 39.06494141 C-63.28581098 36.71640201 -65.64468847 34.36011829 -68 32 C-66.47494767 27.79162773 -63.4109897 25.72335566 -59.875 23.25 C-59.25608887 22.81461914 -58.63717773 22.37923828 -57.99951172 21.93066406 C-42.32474187 11.19860109 -19.42770594 0 0 0 Z " fill="#C74D46" transform="translate(238,119)"/>
<path d="M0 0 C5.51852203 4.53307167 10.39310942 10.26504571 11.703125 17.45703125 C12.48770875 26.94920846 11.84914857 34.94492158 6.0078125 42.7109375 C0.23546993 49.05584036 -5.69008079 52.01566174 -14.2109375 52.83203125 C-21.58376502 53.16011432 -28.1777494 53.00523218 -34.296875 48.45703125 C-35.34875 47.73515625 -36.400625 47.01328125 -37.484375 46.26953125 C-43.54396459 40.20994166 -47.25841523 32.28298711 -47.671875 23.70703125 C-47.4552705 15.22123157 -44.0585441 8.34903456 -38.296875 2.21484375 C-27.1190363 -7.60942855 -12.3764298 -8.31409825 0 0 Z " fill="#F7F9F9" transform="translate(274.296875,230.54296875)"/>
<path d="M0 0 C2.55532423 0.98535565 4.3779088 2.34103821 6.5546875 4.00390625 C11.53529188 7.60595049 16.70791892 10.10796402 22.33203125 12.5546875 C25.1171875 13.81640625 25.1171875 13.81640625 28.1171875 15.81640625 C26.75066712 21.18819213 25.38133839 26.55925177 24.00952148 31.9296875 C23.54425045 33.75273772 23.07971704 35.57597638 22.6159668 37.39941406 C17.87182042 56.04916925 17.87182042 56.04916925 15.1171875 64.81640625 C8.85531151 63.6408684 3.22914408 61.88162463 -2.5703125 59.25390625 C-3.73433594 58.72990234 -3.73433594 58.72990234 -4.921875 58.1953125 C-16.33651329 52.90971644 -26.24161176 45.87086197 -35.8828125 37.81640625 C-36.79933594 37.12160156 -37.71585938 36.42679687 -38.66015625 35.7109375 C-39.39363281 35.08574219 -40.12710938 34.46054687 -40.8828125 33.81640625 C-40.8828125 33.15640625 -40.8828125 32.49640625 -40.8828125 31.81640625 C-39.37109375 30.4765625 -39.37109375 30.4765625 -37.1953125 28.87890625 C-33.18612861 25.85156331 -29.32638981 22.70211858 -25.5078125 19.44140625 C-20.4753872 15.15324396 -15.40055327 10.92558339 -10.2578125 6.76953125 C-8.26189222 5.12814944 -6.35545995 3.42964043 -4.4453125 1.69140625 C-1.8828125 -0.18359375 -1.8828125 -0.18359375 0 0 Z " fill="#FCA723" transform="translate(203.8828125,320.18359375)"/>
<path d="M0 0 C2.83810494 2.83267835 5.66785847 5.67314872 8.48828125 8.5234375 C17.03785911 17.1776607 17.03785911 17.1776607 26.08203125 25.3046875 C30.2527029 28.99118749 34.10167339 33.02977802 38 37 C30.94272841 44.27074778 22.88681308 49.72081334 14.0625 54.625 C13.42393066 54.99214111 12.78536133 55.35928223 12.12744141 55.73754883 C7.69152056 58.11893173 7.69152056 58.11893173 4.796875 57.62109375 C2.20758312 55.28510216 0.77331515 52.49044063 -0.8125 49.4375 C-3.7184262 44.02622189 -6.74687408 38.72228019 -9.95703125 33.484375 C-10.64369873 32.36232666 -11.33036621 31.24027832 -12.0378418 30.08422852 C-13.42126885 27.83278149 -14.8119861 25.58579661 -16.21020508 23.34350586 C-17.16189575 21.78708374 -17.16189575 21.78708374 -18.1328125 20.19921875 C-18.99737061 18.80449341 -18.99737061 18.80449341 -19.87939453 17.3815918 C-21 15 -21 15 -20 12 C-17.3046875 10.3515625 -17.3046875 10.3515625 -13.875 8.625 C-8.91339621 6.05413599 -4.42735032 3.39773396 0 0 Z " fill="#F64434" transform="translate(309,320)"/>
<path d="M0 0 C18.14466411 -0.25420911 35.92955605 0.19175331 54 2 C54.30066825 10.06001908 53.65148213 17.20145921 51.625 25 C51.29242188 26.37091797 51.29242188 26.37091797 50.953125 27.76953125 C49.95710013 31.77120764 48.95677309 35.35040516 47 39 C41.91943052 38.33749133 37.39664609 36.88145082 32.6015625 35.1640625 C31.80777191 34.88404388 31.01398132 34.60402527 30.19613647 34.31552124 C27.67075962 33.42330515 25.14790558 32.52417706 22.625 31.625 C20.93765462 31.02820849 19.25015597 30.43185013 17.5625 29.8359375 C10.35103305 27.28434829 3.15642759 24.70273102 -4 22 C-1.9 3.8 -1.9 3.8 0 0 Z " fill="#F66A22" transform="translate(340,259)"/>
<path d="M0 0 C5.09445721 3.66800919 9.88764594 7.57715833 14.625 11.6875 C20.10968367 16.4461708 25.71575169 21.00450415 31.46923828 25.43432617 C34.14281836 27.49998973 36.63445636 29.59157642 39 32 C39.99 32.66 40.98 33.32 42 34 C41.62488281 34.51046875 41.24976563 35.0209375 40.86328125 35.546875 C36.54675378 41.67917095 33.67303142 48.00990456 31 55 C24.74127566 54.58482757 20.01928646 51.52315888 14.6875 48.5 C12.72575778 47.40796022 10.76351198 46.31682463 8.80078125 45.2265625 C7.82705566 44.68290039 6.85333008 44.13923828 5.85009766 43.57910156 C1.71981775 41.2907128 -2.44737391 39.07545371 -6.625 36.875 C-7.6620105 36.32682617 -7.6620105 36.32682617 -8.7199707 35.76757812 C-11.79695978 34.14465283 -14.878956 32.53675771 -18 31 C-6.16129032 6.16129032 -6.16129032 6.16129032 0 0 Z " fill="#C5EDEA" transform="translate(148,172)"/>
<path d="M0 0 C17.82 0 35.64 0 54 0 C55 8 56 16 57 24 C51.50505628 25.10397543 46.00984852 26.20662418 40.5144043 27.30810547 C38.64942435 27.68210007 36.78451391 28.0564415 34.91967773 28.43115234 C15.03989442 32.42521543 15.03989442 32.42521543 6 34 C3.50744273 28.73560733 2.20444379 23.86658352 1.3125 18.125 C1.11817383 16.99771484 1.11817383 16.99771484 0.91992188 15.84765625 C0.03267907 10.3739784 0 5.74769866 0 0 Z " fill="#F66B24" transform="translate(120,258)"/>
<path d="M0 0 C0.43481689 0.87289673 0.43481689 0.87289673 0.87841797 1.76342773 C1.88835624 3.77736863 2.91356244 5.78233225 3.9453125 7.78515625 C4.67203593 9.21085548 5.39859382 10.6366391 6.125 12.0625 C6.49753906 12.78244141 6.87007812 13.50238281 7.25390625 14.24414062 C7.60582031 14.93830078 7.95773438 15.63246094 8.3203125 16.34765625 C8.64273926 16.97679932 8.96516602 17.60594238 9.29736328 18.25415039 C10 20 10 20 10 23 C9.030625 23.4125 8.06125 23.825 7.0625 24.25 C-0.12062887 27.33442957 -7.21305961 30.52880628 -14.1875 34.0625 C-19.20292862 36.60127245 -24.22698122 39.10382984 -29.3125 41.5 C-30.85357422 42.22703125 -30.85357422 42.22703125 -32.42578125 42.96875 C-35 44 -35 44 -38 44 C-39.61314788 40.69180248 -41.21381768 37.3777091 -42.8125 34.0625 C-43.26431641 33.13630859 -43.71613281 32.21011719 -44.18164062 31.25585938 C-51 17.07168111 -51 17.07168111 -51 12 C-40.94493131 9.52624938 -30.84496718 7.28312883 -20.70980835 5.16094971 C-18.76982637 4.75415737 -16.830829 4.34267863 -14.8918457 3.93115234 C-13.08139771 3.55531006 -13.08139771 3.55531006 -11.234375 3.171875 C-10.15381836 2.9459668 -9.07326172 2.72005859 -7.95996094 2.48730469 C-5.23782041 2.03915288 -2.75112935 1.90451888 0 2 C0 1.34 0 0.68 0 0 Z " fill="#FCA924" transform="translate(177,280)"/>
<path d="M0 0 C2.35506098 11.33373096 2.21242223 22.47854499 2 34 C0.27093516 34.02803889 -1.45827874 34.04684082 -3.1875 34.0625 C-4.15042969 34.07410156 -5.11335938 34.08570313 -6.10546875 34.09765625 C-9.41922794 34.01456299 -12.6670407 33.80269628 -15.96875 33.53125 C-23.41119806 32.93123291 -30.85072039 32.66773195 -38.3125 32.4375 C-39.65039916 32.39414291 -40.98828988 32.35052433 -42.32617188 32.30664062 C-45.55070824 32.2018723 -48.77530363 32.09969983 -52 32 C-52.33 32.66 -52.66 33.32 -53 34 C-53.66 25.75 -54.32 17.5 -55 9 C-52.69 9 -50.38 9 -48 9 C-45.58534296 8.69327494 -45.58534296 8.69327494 -43.33740234 8.17382812 C-42.07106461 7.90354797 -42.07106461 7.90354797 -40.77914429 7.62780762 C-39.44600693 7.3325116 -39.44600693 7.3325116 -38.0859375 7.03125 C-37.15327057 6.8314856 -36.22060364 6.63172119 -35.25967407 6.42590332 C-32.2966149 5.79067632 -29.33568313 5.14620379 -26.375 4.5 C-23.40703671 3.85451853 -20.43867552 3.21120306 -17.46890259 2.57409668 C-15.62582885 2.17852413 -13.78378899 1.77809487 -11.94296265 1.37219238 C-7.90302448 0.50344278 -4.16091931 -0.26989747 0 0 Z " fill="#FC9731" transform="translate(392,227)"/>
<path d="M0 0 C3.67680999 2.0101591 6.1735836 4.06037582 8.875 7.25 C13.69098822 12.77734811 18.8599946 17.89541429 24.12255859 22.99707031 C24.75371582 23.61678711 25.38487305 24.23650391 26.03515625 24.875 C26.6062915 25.42929688 27.17742676 25.98359375 27.76586914 26.5546875 C29 28 29 28 29 30 C29.99 30.33 30.98 30.66 32 31 C34.75 33.875 34.75 33.875 37 37 C35.88273561 40.35179318 35.04550033 41.01707405 32.375 43.1875 C28.12846703 46.77482388 24.54762209 50.73176717 21 55 C16.53504839 54.12911221 13.92645485 51.59286796 10.625 48.625 C5.75668316 44.34247587 0.81854956 40.21419943 -4.3125 36.25 C-9.74201389 32.04424056 -14.95113819 27.66151527 -20 23 C-19.41021462 19.65237085 -18.33623088 17.92682286 -16.015625 15.46875 C-15.40976563 14.82292969 -14.80390625 14.17710937 -14.1796875 13.51171875 C-13.54289063 12.84785156 -12.90609375 12.18398437 -12.25 11.5 C-11.62867188 10.83613281 -11.00734375 10.17226562 -10.3671875 9.48828125 C-7.09818126 6.0330658 -3.82090441 2.8583865 0 0 Z " fill="#05B995" transform="translate(169,150)"/>
<path d="M0 0 C4.06053418 2.88297927 6.5525258 6.01107777 8.34375 10.6640625 C9.25981548 16.16761213 9.31614844 21.54984266 6.71875 26.6015625 C2.37633122 32.20099725 -2.24706172 36.02362174 -9.453125 37.0703125 C-15.96864963 37.27715455 -20.50280416 36.67190075 -25.7421875 32.6328125 C-30.03976795 28.21244404 -32.82786993 22.74428357 -33.21875 16.5390625 C-32.16157134 9.25627617 -29.24221771 4.38383132 -23.44140625 -0.1484375 C-15.71757997 -5.28638758 -7.73373412 -4.27264941 0 0 Z " fill="#45737D" transform="translate(268.65625,237.3359375)"/>
<path d="M0 0 C7.425 2.97 7.425 2.97 15 6 C12.77233259 15.6817853 10.43942797 25.32281427 7.9375 34.9375 C7.69241699 35.88310791 7.44733398 36.82871582 7.19482422 37.80297852 C5.59493413 43.91092012 3.85551291 49.96487257 2 56 C-4.67913601 54.72969385 -10.41173447 52.74029489 -16.5625 49.875 C-17.38041016 49.50246094 -18.19832031 49.12992187 -19.04101562 48.74609375 C-21.03087781 47.83843731 -23.0159627 46.92031935 -25 46 C-25 36.82522696 -16.37980038 26.28840298 -11.8125 18.5625 C-11.19697266 17.51384766 -10.58144531 16.46519531 -9.94726562 15.38476562 C-8.30335 12.58672505 -6.65557392 9.7911566 -5 7 C-4.48139404 6.06534912 -3.96278809 5.13069824 -3.4284668 4.16772461 C-2.72137573 3.09470093 -2.72137573 3.09470093 -2 2 C-1.34 2 -0.68 2 0 2 C0 1.34 0 0.68 0 0 Z " fill="#FB9E3B" transform="translate(217,329)"/>
<path d="M0 0 C6.36163847 0.33482308 10.37366357 1.5142105 15 6 C19.14120418 11.20305141 19.63000691 15.52881552 19.3828125 22.12890625 C18.64804884 27.6396337 16.18886524 31.12329491 12.0625 34.8125 C7.5142372 38.06125915 4.53116866 39.10123603 -1 39 C-1.02486762 34.57088594 -1.04293889 30.14180975 -1.05493164 25.71264648 C-1.05993555 24.2084075 -1.06674073 22.70417332 -1.07543945 21.19995117 C-1.08767884 19.02781991 -1.09326786 16.85575341 -1.09765625 14.68359375 C-1.10289307 13.37962646 -1.10812988 12.07565918 -1.11352539 10.73217773 C-1.00145975 7.04798967 -0.59374786 3.63028534 0 0 Z " fill="#1E3D46" transform="translate(258,235)"/>
<path d="M0 0 C0 17.49 0 34.98 0 53 C-1.65 53 -3.3 53 -5 53 C-6.24629332 47.89571264 -7.49136484 42.7911293 -8.73535156 37.6862793 C-9.15787512 35.95312638 -9.58072057 34.22005191 -10.00390625 32.48706055 C-10.61545046 29.98246968 -11.22579991 27.4775901 -11.8359375 24.97265625 C-12.02247894 24.20977798 -12.20902039 23.44689972 -12.4012146 22.66090393 C-13.33236708 18.83313648 -14.24484361 15.00113153 -15.12744141 11.16186523 C-15.29208893 10.4488475 -15.45673645 9.73582977 -15.62637329 9.00120544 C-16.12799132 6.31445766 -16.13963481 3.72287885 -16 1 C-11 0 -11 0 0 0 Z " fill="#ED7F7E" transform="translate(254,118)"/>
<path d="M0 0 C1.98 0 3.96 0 6 0 C6 17.49 6 34.98 6 53 C4.02 53 2.04 53 0 53 C0 35.51 0 18.02 0 0 Z " fill="#F86656" transform="translate(254,118)"/>
<path d="M0 0 C-0.33 0.99 -0.66 1.98 -1 3 C-2.51400391 2.51853516 -2.51400391 2.51853516 -4.05859375 2.02734375 C-16.74889515 -1.5697816 -28.60668699 1.69965497 -40.00390625 7.5390625 C-52.97153453 15.15010441 -60.91615033 26.65159906 -64.8125 41.0625 C-65.93260178 45.99876249 -66.45289687 50.86590646 -66.69140625 55.91796875 C-66.79324219 56.60503906 -66.89507812 57.29210937 -67 58 C-67.99 58.495 -67.99 58.495 -69 59 C-69.57004869 43.35533048 -67.34558245 30.0324923 -56.75 17.8125 C-41.7620462 2.03440696 -21.64860844 -7.01214566 0 0 Z " fill="#37636D" transform="translate(270,202)"/>
<path d="M0 0 C-0.33 0.99 -0.66 1.98 -1 3 C-2.00417969 2.67515625 -3.00835937 2.3503125 -4.04296875 2.015625 C-13.33095888 -0.62674867 -23.77304285 0.56842541 -33 3 C-33 2.34 -33 1.68 -33 1 C-22.09570712 -2.80856799 -11.04201906 -3.55326511 0 0 Z " fill="#254B55" transform="translate(270,202)"/>
<path d="M0 0 C0.66 0.66 1.32 1.32 2 2 C1.38253906 2.27972656 0.76507813 2.55945313 0.12890625 2.84765625 C-6.27205727 5.8776405 -11.54277801 9.51955704 -17 14 C-18.32835282 15.00660646 -19.66020605 16.00867264 -21 17 C-17.29143657 8.3273699 -8.25428563 3.58432445 0 0 Z " fill="#20444D" transform="translate(235,202)"/>
<path d="M0 0 C0.33 0 0.66 0 1 0 C0.67 5.61 0.34 11.22 0 17 C-0.66 17.33 -1.32 17.66 -2 18 C-2.05397335 15.5622037 -2.09365616 13.12560315 -2.125 10.6875 C-2.14175781 9.99720703 -2.15851563 9.30691406 -2.17578125 8.59570312 C-2.21217794 4.82864604 -2.14378864 3.21568296 0 0 Z " fill="#305B64" transform="translate(203,243)"/>
<path d="M0 0 C0 0.33 0 0.66 0 1 C-2.10320063 1.50404808 -4.20759791 2.00310508 -6.3125 2.5 C-8.07013672 2.91765625 -8.07013672 2.91765625 -9.86328125 3.34375 C-13 4 -13 4 -16 4 C-16 3.34 -16 2.68 -16 2 C-10.60539047 -0.27141454 -5.73842251 -0.20413361 0 0 Z " fill="#2D5660" transform="translate(253,201)"/>
</svg>
